<svg xmlns="http://www.w3.org/2000/svg" viewBox="0 0 64 64" role="img" aria-labelledby="title desc">
  <title id="title">Paper Agent Beautify</title>
  <desc id="desc">A diagonal magic wand surrounded by three sparkles.</desc>
  <g fill="none" stroke="#171717" stroke-linecap="round" stroke-linejoin="round">
    <path d="m12 52 30-30 7 7-30 30Z" stroke-width="3.6"/>
    <path d="m36.5 27.5 7 7" stroke-width="3.6"/>
  </g>
  <path d="M47 4.5c1 5.9 3.6 8.5 9.5 9.5-5.9 1-8.5 3.6-9.5 9.5-1-5.9-3.6-8.5-9.5-9.5 5.9-1 8.5-3.6 9.5-9.5Z" fill="#171717"/>
  <path d="M28.5 8c.5 3 2 4.5 5 5-3 .5-4.5 2-5 5-.5-3-2-4.5-5-5 3-.5 4.5-2 5-5Z" fill="#171717"/>
  <path d="M55 38c.4 2.4 1.6 3.6 4 4-2.4.4-3.6 1.6-4 4-.4-2.4-1.6-3.6-4-4 2.4-.4 3.6-1.6 4-4Z" fill="#171717"/>
</svg>
